<svg viewBox="0 0 120 40" fill="none" xmlns="http://www.w3.org/2000/svg">
  <path d="M20.9291 5.45455L11.7546 35H6.38367L0 5.45455H5.17822L9.56643 28.2713H9.87971L15.3399 5.45455H20.9291ZM33.5241 35.3977C31.1887 35.3977 29.2284 34.8011 27.6434 33.608C26.0682 32.4148 25.0406 30.6903 24.5605 28.4347L29.0586 27.4148C29.3473 28.6839 29.8866 29.6442 30.6763 30.2955C31.466 30.9418 32.4591 31.2649 33.6554 31.2649C34.7134 31.2649 35.5299 31.0085 36.1048 30.4957C36.6797 29.983 36.9671 29.3011 36.9671 28.4503C36.9671 27.6292 36.6693 26.9673 36.0736 26.4645C35.478 25.9616 34.5465 25.483 33.2774 25.0284L31.4151 24.304C29.424 23.608 27.9256 22.6918 26.9198 21.5554C25.9139 20.4141 25.4109 19.0348 25.4109 17.4173C25.4109 15.4602 26.1629 13.8945 27.6669 12.7202C29.1709 11.5409 31.0581 10.9513 33.3285 10.9513C35.3713 10.9513 37.0673 11.4293 38.4167 12.3854C39.766 13.3366 40.6903 14.7254 41.1903 16.5518L36.7614 17.5966C36.576 16.608 36.1492 15.8483 35.4812 15.3175C34.8133 14.7817 34.0028 14.5139 33.0497 14.5139C32.1176 14.5139 31.3802 14.7393 30.8377 15.1903C30.3049 15.6413 30.0384 16.2358 30.0384 16.9737C30.0384 17.6641 30.2748 18.233 30.7475 18.6804C31.2201 19.1278 31.9354 19.5256 32.8933 19.8736L34.8212 20.598C36.9567 21.3366 38.5201 22.2997 39.5115 23.4872C40.513 24.6696 41.0138 26.1105 41.0138 27.8097C41.0138 29.9311 40.2241 31.625 38.6447 32.8913C37.0752 34.1622 35.5042 34.7976 33.9402 34.9986C33.7953 35.0134 33.6576 35.0207 33.5241 35.3977ZM53.7261 35.3977C51.2398 35.3977 49.2137 34.5767 47.6475 32.9347C46.0813 31.2926 45.2982 29.0213 45.2982 26.1207V11H49.9507V26.1463C49.9507 27.7585 50.3518 28.9918 51.1539 29.8459C51.9561 30.7 52.9645 31.1271 54.1793 31.1271C55.3941 31.1271 56.4037 30.7 57.2082 29.8459C58.0127 28.9918 58.415 27.7585 58.415 26.1463V11H63.0675V26.1207C63.0675 29.0213 62.2832 31.2926 60.7146 32.9347C59.1459 34.5767 57.1199 35.3977 53.7261 35.3977ZM78.344 35.3977C76.9316 35.3977 75.6002 35.125 74.3498 34.5795C73.0995 34.0341 72.0359 33.2635 71.1591 32.2679C70.2824 31.2673 69.6029 30.0668 69.1207 28.6662C68.6385 27.2607 68.3974 25.7267 68.3974 24.0639C68.3974 22.304 68.6505 20.7202 69.1566 19.3125C69.6627 17.9048 70.3782 16.7175 71.3029 15.7507C72.2276 14.7839 73.3218 14.044 74.5852 13.5312C75.8487 13.0185 77.2444 12.7621 78.7724 12.7621C80.3731 12.7621 81.7844 13.0412 83.0063 13.5994C84.2283 14.1527 85.2486 14.9645 86.0675 16.0348C86.8863 17.1051 87.4577 18.3821 87.7815 19.8658L83.5826 20.7727C83.1825 19.3551 82.5463 18.2635 81.674 17.4979C80.8018 16.7323 79.7755 16.3494 78.5952 16.3494C77.6758 16.3494 76.8594 16.5362 76.146 16.9098C75.4325 17.2783 74.8303 17.8011 74.3394 18.4783C73.8484 19.1555 73.4726 19.9574 73.212 20.8842C72.9513 21.8111 72.821 22.8452 72.821 23.9865C72.821 25.1278 72.9525 26.1619 73.2155 27.0887C73.4784 28.0156 73.8566 28.8175 74.3498 29.4946C74.8431 30.1719 75.4505 30.6946 76.1721 31.0632C76.8937 31.4318 77.7196 31.6161 78.6499 31.6161C79.3118 31.6161 79.9365 31.5094 80.5239 31.2962C81.1113 31.0829 81.6382 30.7784 82.1047 30.3828C82.5711 29.9872 82.9599 29.5071 83.2711 28.9425C83.5822 28.3778 83.7831 27.7372 83.8738 27.0206L88.1358 27.9276C87.8617 29.0057 87.4418 30.0028 86.8761 30.919C86.3104 31.8352 85.6182 32.6237 84.7994 33.2847C83.9806 33.9456 83.0429 34.4574 81.9863 34.8203C80.9297 35.1832 79.7252 35.3977 78.344 35.3977ZM92.8821 11H97.5347V18.7955H107.152V11H111.805V35H107.152V22.554H97.5347V35H92.8821V11Z" fill="#000000"/>
</svg>
