<svg width="512" height="512" viewBox="0 0 512 512" fill="none" xmlns="http://www.w3.org/2000/svg">
  <path d="M449.92 200.92L428.84 312.36C425.404 329.282 415.545 344.203 401.5 354.49C387.455 364.777 370.276 369.755 352.92 368.59L128.92 351.59C114.388 350.813 100.309 346.016 88.349 337.729C76.389 329.442 67 318.013 61.13 304.65L16.49 200.65C11.43 190.46 8.09 179.39 6.49 167.98C5.05645 157.723 6.43468 147.283 10.49 137.65C14.3995 128.711 20.2366 120.855 27.595 114.72C34.9534 108.584 43.6172 104.337 52.97 102.3L62.55 100.3C64.844 99.8066 67.1912 99.5617 69.55 99.57C76.1651 99.5958 82.6118 101.782 87.9298 105.783C93.2477 109.784 97.1362 115.37 99.01 121.75L113.1 169.53C113.909 171.912 115.244 174.074 116.999 175.867C118.753 177.659 120.887 179.041 123.25 179.9C125.574 180.758 128.07 181.065 130.536 180.8C133.002 180.534 135.366 179.705 137.43 178.38L369.43 29.38C371.942 27.6989 374.852 26.7092 377.881 26.5112C380.911 26.3131 383.942 26.9142 386.67 28.25C389.399 29.5594 391.733 31.5584 393.436 34.0555C395.14 36.5526 396.155 39.4603 396.36 42.49L397 48.99C397.472 55.4661 396.278 61.974 393.53 67.82L351.37 150.33C349.816 153.388 349.026 156.766 349.07 160.18C349.114 163.595 349.991 166.948 351.622 169.959C353.253 172.97 355.591 175.551 358.435 177.458C361.28 179.364 364.546 180.542 367.95 180.89L429.93 188.36C432.535 188.686 435.019 189.713 437.132 191.347C439.245 192.98 440.915 195.17 442.001 197.691C443.086 200.211 443.552 202.982 443.356 205.743C443.159 208.505 442.308 211.153 440.88 213.46L449.92 200.92Z" fill="#F2F2F2"/>
  <path d="M277 247.5H276.16L208.01 241.32C201.075 240.831 194.752 237.581 190.401 232.288C186.051 226.996 184.07 220.136 184.97 213.32L193.46 146.38C194.128 141.11 196.744 136.302 200.783 132.829C204.823 129.356 209.976 127.49 215.3 127.59L257.08 128.59C262.294 128.717 267.233 130.916 270.956 134.731C274.679 138.546 276.855 143.749 276.97 149.19L279.97 226.19C280.02 229.981 278.939 233.7 276.866 236.853C274.794 240.006 271.827 242.443 268.355 243.827C264.884 245.211 261.067 245.479 257.425 244.597C253.784 243.715 250.51 241.726 248 238.91" fill="#FFFFFF"/>
  <path d="M128.92 351.59L352.92 368.59C370.276 369.755 387.455 364.777 401.5 354.49C415.545 344.203 425.404 329.282 428.84 312.36L458.84 156.36C459.271 154.022 459.355 151.633 459.089 149.27C458.822 146.907 458.208 144.596 457.27 142.43C455.372 137.96 451.904 134.283 447.54 132.12L433.54 125.67C431.532 124.638 429.32 123.998 427.04 123.79L335.54 113.37C327.635 112.308 319.648 114 313.01 118.13L100.54 257.08L99.01 121.76C97.1362 115.38 93.2477 109.794 87.9298 105.793C82.6118 101.792 76.1651 99.5958 69.55 99.57C67.1912 99.5617 64.844 99.8066 62.55 100.3L52.97 102.3C43.6172 104.337 34.9534 108.584 27.595 114.72C20.2366 120.855 14.3995 128.711 10.49 137.65C6.43468 147.283 5.05645 157.723 6.49 167.98C8.09 179.39 11.43 190.46 16.49 200.65L61.13 304.65C67 318.013 76.389 329.442 88.349 337.729C100.309 346.016 114.388 350.813 128.92 351.59Z" fill="#FFFFFF"/>
  <path d="M402 393H203C201.409 393 199.883 393.632 198.757 394.757C197.632 395.883 197 397.409 197 399V402C197 403.591 197.632 405.117 198.757 406.243C199.883 407.368 201.409 408 203 408H402C403.591 408 405.117 407.368 406.243 406.243C407.368 405.117 408 403.591 408 402V399C408 397.409 407.368 395.883 406.243 394.757C405.117 393.632 403.591 393 402 393Z" fill="#F2F2F2"/>
  <path d="M407.66 419H197.34C196.452 419.001 195.58 418.779 194.8 418.356C194.021 417.932 193.36 417.32 192.882 416.579C192.405 415.839 192.126 414.992 192.07 414.118C192.014 413.245 192.183 412.369 192.56 411.58L196.96 402.58C197.489 401.533 198.334 400.688 199.372 400.165C200.41 399.643 201.586 399.47 202.73 399.67L402.27 429.67C403.455 429.902 404.543 430.494 405.385 431.37C406.226 432.246 406.783 433.367 406.98 434.58L407.66 437.12C407.841 438.23 407.755 439.364 407.412 440.426C407.068 441.487 406.478 442.443 405.694 443.207C404.909 443.971 403.953 444.519 402.912 444.799C401.872 445.079 400.784 445.083 399.74 444.81L194.74 404.81C193.872 404.581 193.063 404.168 192.37 403.599C191.677 403.03 191.115 402.317 190.73 401.51" fill="#F2F2F2"/>
  <path d="M403.34 429.86L203.57 399.86C202.715 399.709 201.842 399.724 201.003 399.903C200.164 400.083 199.381 400.423 198.71 400.9C198.038 401.378 197.494 401.982 197.116 402.673C196.738 403.364 196.536 404.124 196.53 404.9V407.9C196.532 409.351 197.114 410.743 198.156 411.781C199.198 412.819 200.626 413.429 202.13 413.44L404.13 418.37C404.987 418.4 405.84 418.195 406.6 417.77C407.36 417.346 408.001 416.719 408.456 415.951C408.91 415.183 409.163 414.3 409.19 413.39L409.33 410.39C409.354 409.389 409.12 408.4 408.654 407.52C408.189 406.64 407.508 405.9 406.676 405.375C405.845 404.851 404.889 404.559 403.904 404.529C402.919 404.499 401.942 404.733 401.08 405.21L403.34 429.86Z" fill="#F2F2F2"/>
  <path d="M215 457.5C226.874 457.5 236.5 447.874 236.5 436C236.5 424.126 226.874 414.5 215 414.5C203.126 414.5 193.5 424.126 193.5 436C193.5 447.874 203.126 457.5 215 457.5Z" fill="#000000"/>
  <path d="M215 449C222.18 449 228 443.18 228 436C228 428.82 222.18 423 215 423C207.82 423 202 428.82 202 436C202 443.18 207.82 449 215 449Z" fill="#FFFFFF"/>
  <path d="M385 457.5C396.874 457.5 406.5 447.874 406.5 436C406.5 424.126 396.874 414.5 385 414.5C373.126 414.5 363.5 424.126 363.5 436C363.5 447.874 373.126 457.5 385 457.5Z" fill="#000000"/>
  <path d="M385 449C392.18 449 398 443.18 398 436C398 428.82 392.18 423 385 423C377.82 423 372 428.82 372 436C372 443.18 377.82 449 385 449Z" fill="#FFFFFF"/>
</svg>
